<?xml version="1.0" standalone="no"?>
<!DOCTYPE svg PUBLIC "-//W3C//DTD SVG 20010904//EN"
 "http://www.w3.org/TR/2001/REC-SVG-20010904/DTD/svg10.dtd">
<svg version="1.0" xmlns="http://www.w3.org/2000/svg"
 width="310.000000pt" height="310.000000pt" viewBox="0 0 310.000000 310.000000"
 preserveAspectRatio="xMidYMid meet">

<g transform="translate(0.000000,310.000000) scale(0.100000,-0.100000)"
fill="#000000" stroke="none">
<path d="M10 2607 c0 -272 3 -497 7 -500 3 -4 35 48 70 115 36 68 89 157 120
200 104 144 278 300 424 381 32 18 59 35 59 39 0 4 -37 26 -81 49 -46 23 -78
44 -73 49 21 20 267 110 344 126 112 22 230 15 323 -20 37 -14 78 -32 90 -41
12 -8 26 -15 32 -15 9 0 75 92 75 105 0 3 -313 5 -695 5 l-695 0 0 -493z"/>
<path d="M1430 2979 c-41 -66 -78 -123 -82 -125 -5 -3 -22 8 -38 25 -42 42
-125 86 -189 101 -33 8 -87 11 -140 7 -94 -6 -221 -40 -221 -60 0 -7 36 -30
80 -52 43 -21 77 -42 75 -45 -2 -4 -33 -17 -67 -30 -251 -91 -472 -275 -624
-522 -24 -40 -44 -77 -44 -84 0 -8 46 -14 145 -20 l145 -9 -31 -45 c-81 -120
-153 -295 -190 -465 -24 -110 -39 -385 -20 -385 7 0 46 23 87 50 41 28 78 49
83 46 5 -3 12 -32 16 -63 22 -188 109 -414 230 -598 51 -77 167 -217 186 -223
5 -2 10 25 10 60 2 109 14 196 24 173 44 -104 61 -136 102 -198 50 -75 172
-211 207 -229 11 -6 -3 16 -31 48 -100 116 -179 262 -202 375 -6 30 -12 113
-14 184 -2 113 1 140 22 207 13 43 28 78 33 78 4 0 27 -39 49 -87 41 -88 41
-88 35 -178 -6 -95 6 -190 44 -340 31 -120 62 -197 139 -345 16 -30 45 -16 71
32 14 27 30 48 35 48 6 0 49 -70 95 -155 68 -123 89 -155 104 -153 13 2 46 50
105 155 47 84 89 153 93 153 3 0 20 -25 37 -55 17 -30 35 -55 40 -55 5 0 49
33 98 73 121 101 234 242 291 365 l26 57 7 -45 c4 -25 8 -75 8 -112 1 -46 5
-68 13 -68 40 0 219 246 292 400 70 150 135 367 136 457 0 17 4 34 8 37 5 3
45 -19 90 -49 45 -30 84 -55 87 -55 13 0 3 229 -15 335 -32 186 -120 421 -196
522 -13 17 -24 36 -24 42 0 7 46 11 135 11 110 0 137 3 141 15 7 16 -66 140
-133 227 -132 173 -353 339 -520 393 -29 9 -55 20 -57 24 -3 4 31 25 74 46 44
22 80 45 80 51 0 18 -102 54 -184 64 -156 19 -290 -17 -382 -102 l-42 -38 -81
125 -81 125 -48 0 -47 -1 -75 -120z m124 -194 c3 -148 9 -293 12 -322 6 -50 5
-52 -21 -59 -85 -21 -110 40 -95 232 11 147 24 232 51 339 40 154 46 131 53
-190z m-401 111 c93 -44 187 -169 204 -269 9 -59 -10 -43 -42 36 -46 112 -139
193 -271 237 -35 12 -64 24 -64 27 0 15 123 -8 173 -31z m992 24 c-11 -4 -50
-20 -86 -34 -37 -15 -93 -48 -125 -74 -50 -40 -66 -62 -106 -142 -40 -80 -47
-90 -48 -64 -1 115 124 269 251 309 48 15 149 20 114 5z m-1143 -275 c121 -17
210 -51 305 -117 60 -40 133 -107 133 -121 0 -6 -47 -7 -137 -3 l-138 7 -105
51 c-101 49 -108 51 -190 51 -47 0 -112 -5 -144 -12 -80 -18 -204 -71 -282
-122 -36 -23 -67 -39 -71 -35 -4 3 38 50 93 104 124 122 230 182 359 202 28 4
53 8 57 9 4 0 58 -6 120 -14z m1363 -17 c90 -28 223 -117 304 -203 65 -70 79
-99 34 -69 -122 79 -238 128 -359 149 -124 22 -178 14 -299 -45 l-100 -48
-138 -7 c-95 -5 -137 -4 -137 3 0 33 183 167 277 202 71 27 230 50 298 44 28
-3 81 -15 120 -26z m-375 -300 c32 -41 87 -107 173 -204 37 -42 67 -83 67 -90
0 -7 -15 -17 -32 -23 -50 -16 -267 -68 -316 -76 -41 -7 -44 -10 -68 -63 -61
-138 -61 -135 -30 -268 16 -65 32 -135 37 -155 8 -33 21 -43 129 -109 66 -40
125 -78 130 -86 15 -18 -83 -247 -117 -274 -56 -44 -151 -33 -269 29 -65 34
-69 38 -72 73 -3 36 3 44 92 138 53 55 96 104 96 109 0 23 -40 29 -237 33
-253 6 -263 5 -263 -31 0 -20 21 -46 96 -117 92 -88 95 -92 92 -130 -3 -37 -6
-41 -73 -76 -82 -43 -167 -61 -219 -47 -39 11 -62 38 -98 119 -14 30 -35 76
-47 102 -11 26 -21 53 -21 60 0 7 58 48 129 91 72 42 132 85 134 95 3 9 17 80
33 158 l27 141 -33 84 c-18 46 -36 87 -40 92 -4 4 -71 26 -151 48 -79 22 -168
46 -196 55 -29 8 -53 20 -53 27 0 13 230 303 258 326 14 11 88 12 417 7 l400
-5 25 -33z m-990 -45 c0 -3 -39 -64 -86 -134 l-87 -127 -61 -14 c-174 -38
-352 -248 -449 -530 -6 -18 -27 -25 -27 -9 0 30 34 197 51 251 58 182 181 343
327 427 26 15 62 38 80 51 18 14 76 40 130 58 98 34 122 39 122 27z m1251 -34
c42 -16 94 -42 115 -57 22 -15 57 -36 79 -47 22 -11 78 -58 125 -105 119 -118
179 -234 221 -420 20 -90 24 -160 11 -160 -5 0 -14 19 -21 43 -24 81 -101 223
-165 303 -84 107 -173 173 -268 199 l-72 20 -82 120 c-46 66 -83 126 -83 133
-1 18 40 9 140 -29z m-1232 -310 c20 -11 50 -41 66 -65 33 -51 57 -64 116 -64
39 0 41 -2 64 -53 l23 -54 -22 -99 c-13 -54 -27 -119 -32 -144 -8 -40 -14 -48
-59 -72 -28 -16 -58 -27 -68 -25 -15 1 -39 55 -108 232 -48 127 -88 239 -89
249 0 18 56 116 67 116 3 0 22 -9 42 -21z m1157 -33 l36 -55 -93 -245 c-55
-147 -98 -246 -106 -246 -24 0 -123 54 -127 70 -2 8 -16 72 -31 143 l-28 127
20 53 c19 49 22 52 59 55 69 4 81 11 124 64 38 48 84 88 102 88 4 0 24 -24 44
-54z m-1308 -110 l31 -114 -25 -74 c-13 -40 -45 -152 -69 -249 l-45 -175 0
-180 c0 -143 4 -198 21 -274 35 -161 34 -150 4 -115 -41 47 -122 221 -145 310
-33 129 -44 254 -32 354 6 47 14 113 18 146 11 108 78 284 164 433 17 28 34
52 39 52 4 0 22 -51 39 -114z m1462 33 c81 -137 141 -307 156 -439 5 -41 8
-142 8 -225 -1 -131 -5 -161 -28 -240 -40 -134 -152 -352 -171 -333 -3 3 1 22
8 44 32 91 42 180 41 374 l-1 195 -41 160 c-23 88 -54 195 -69 237 l-26 77 28
108 c15 59 30 111 32 116 8 14 22 -3 63 -74z m-166 -756 c36 -137 16 -359 -44
-498 -42 -97 -227 -341 -245 -323 -3 3 12 41 33 84 81 162 133 384 136 574 2
118 3 129 33 190 17 36 35 69 39 73 11 11 29 -28 48 -100z m-454 -149 c155
-63 156 -63 121 -139 -22 -47 -44 -68 -90 -84 -45 -15 -325 -14 -370 2 -45 16
-91 74 -98 124 l-5 40 133 55 c74 31 142 56 151 57 10 0 81 -24 158 -55z
m-360 -319 c0 -28 9 -83 20 -123 11 -39 20 -79 20 -88 0 -15 -2 -15 -21 2 -52
47 -121 259 -93 287 3 3 21 -2 40 -10 32 -16 34 -20 34 -68z m487 33 c-2 -24
-10 -59 -17 -78 -7 -19 -19 -53 -26 -75 -14 -42 -68 -114 -77 -105 -3 3 5 44
18 90 14 47 25 108 25 137 0 56 13 72 59 73 21 0 23 -3 18 -42z m-268 -41 c17
-89 23 -288 11 -383 -13 -107 -28 -167 -39 -159 -5 3 -17 40 -27 82 -20 89
-23 364 -3 436 27 102 42 109 58 24z"/>
<path d="M1715 3073 c10 -16 28 -42 41 -60 l24 -31 53 29 c88 47 166 62 292
56 70 -3 132 -12 171 -25 115 -38 274 -104 269 -111 -2 -5 -38 -23 -80 -41
-86 -38 -91 -51 -30 -84 178 -95 315 -214 441 -381 54 -72 184 -306 184 -331
0 -11 -26 -14 -135 -14 -86 0 -135 -4 -135 -10 0 -6 14 -38 31 -72 70 -138
122 -340 138 -538 12 -141 3 -360 -14 -360 -6 0 -47 25 -90 55 -44 30 -85 55
-92 55 -7 0 -15 -12 -18 -28 -33 -154 -121 -356 -219 -507 -78 -120 -355 -418
-357 -385 -1 8 0 31 0 50 3 75 -11 71 -116 -36 -89 -91 -250 -224 -270 -224
-4 0 -16 14 -25 30 -9 17 -21 30 -26 30 -8 0 -102 -124 -102 -135 0 -3 326 -5
725 -5 l725 0 0 1550 0 1550 -701 0 -701 0 17 -27z"/>
<path d="M17 2073 c-4 -3 -7 -471 -7 -1040 l0 -1033 715 0 c393 0 715 2 715 4
0 15 -75 126 -84 126 -7 0 -19 -11 -26 -25 -7 -14 -19 -25 -25 -25 -24 0 -178
123 -269 215 -52 52 -97 95 -100 95 -3 0 -6 -27 -6 -60 0 -33 -4 -60 -8 -60
-5 0 -72 64 -148 143 -221 225 -345 433 -415 697 -12 47 -26 89 -30 93 -4 5
-44 -16 -90 -47 -46 -31 -89 -56 -95 -56 -16 0 -28 212 -19 332 14 201 61 394
131 547 19 41 34 80 34 87 0 11 -28 14 -133 14 -74 0 -137 -3 -140 -7z"/>
</g>
</svg>
