<?xml version="1.0" encoding="UTF-8"?>
<svg xmlns="http://www.w3.org/2000/svg" xmlns:xlink="http://www.w3.org/1999/xlink" width="76px" height="76px" viewBox="0 0 76 76" version="1.1">
<g id="surface1">
<path style=" stroke:none;fill-rule:nonzero;fill:rgb(0%,0%,0%);fill-opacity:1;" d="M 35.730469 1.6875 C 35.203125 2.640625 34.359375 4.011719 33.832031 4.695312 L 32.878906 5.964844 L 30.929688 4.484375 C 29.503906 3.378906 28.183594 2.902344 26.070312 2.746094 C 23.328125 2.535156 18.472656 3.429688 18.472656 4.167969 C 18.472656 4.378906 19.371094 4.960938 20.425781 5.488281 L 22.429688 6.4375 L 19.265625 7.917969 C 15.042969 9.816406 10.1875 13.5625 7.863281 16.730469 C 5.226562 20.265625 4.222656 21.796875 4.222656 22.273438 C 4.222656 22.535156 5.804688 22.695312 7.707031 22.695312 C 9.605469 22.695312 11.082031 22.851562 10.976562 23.0625 C 10.925781 23.328125 9.921875 25.28125 8.867188 27.445312 C 7.8125 29.609375 6.542969 33.25 6.121094 35.464844 C 5.277344 39.582031 5.015625 44.859375 5.59375 44.859375 C 5.804688 44.859375 6.753906 44.332031 7.757812 43.753906 C 8.761719 43.121094 9.605469 42.695312 9.710938 42.804688 C 9.765625 42.910156 10.238281 44.808594 10.714844 46.972656 C 11.929688 51.984375 14.566406 57.421875 17.785156 61.484375 C 20.320312 64.652344 20.320312 64.652344 20.476562 63.070312 C 20.847656 58.792969 21.058594 58.636719 22.746094 61.804688 C 23.644531 63.4375 25.4375 65.8125 26.757812 67.082031 L 29.132812 69.402344 L 26.917969 66.234375 C 23.855469 61.804688 23.167969 59.957031 22.90625 55.207031 C 22.695312 51.300781 23.328125 47.5 24.226562 47.5 C 24.910156 47.5 25.859375 50.984375 25.859375 53.621094 C 25.859375 58.425781 29.34375 69.878906 31.140625 70.984375 C 31.402344 71.144531 31.929688 70.722656 32.300781 69.984375 C 32.617188 69.246094 33.039062 68.609375 33.195312 68.609375 C 33.355469 68.609375 34.410156 70.300781 35.519531 72.304688 C 36.628906 74.363281 37.839844 76 38.160156 76 C 38.527344 76 39.6875 74.257812 40.851562 72.199219 L 42.855469 68.453125 L 43.699219 69.824219 C 44.175781 70.617188 44.703125 71.25 44.914062 71.25 C 45.707031 71.25 50.507812 66.5 52.566406 63.703125 L 54.835938 60.640625 L 54.996094 62.648438 C 55.101562 64.179688 55.363281 64.652344 56.101562 64.601562 C 57.421875 64.496094 57.210938 65.179688 55.417969 67.132812 L 53.886719 68.875 L 53.832031 67.398438 C 53.832031 66.554688 53.621094 65.972656 53.359375 66.078125 C 53.148438 66.128906 51.035156 67.976562 48.765625 70.140625 C 44.175781 74.46875 44.4375 74.679688 49.242188 70.511719 C 51.667969 68.453125 52.410156 68.03125 52.777344 68.609375 C 53.464844 69.71875 55.523438 68.453125 58.214844 65.234375 C 61.539062 61.222656 62.171875 60.273438 60.273438 61.960938 C 58.265625 63.808594 58.054688 63.070312 59.851562 60.273438 C 63.121094 55.101562 64.96875 50.457031 66.234375 44.175781 L 66.554688 42.644531 L 68.398438 43.753906 C 69.402344 44.386719 70.351562 44.859375 70.511719 44.859375 C 70.617188 44.859375 70.722656 43.226562 70.722656 41.273438 C 70.722656 36.734375 69.140625 30.347656 67.027344 26.496094 C 66.183594 24.859375 65.445312 23.378906 65.445312 23.117188 C 65.445312 22.90625 66.871094 22.695312 68.609375 22.695312 C 70.351562 22.695312 71.777344 22.484375 71.777344 22.273438 C 71.777344 21.375 68.398438 16.464844 66.078125 14.089844 C 64.707031 12.667969 62.59375 10.820312 61.328125 9.976562 C 58.6875 8.074219 58.109375 6.332031 60.640625 7.601562 C 61.433594 8.023438 63.28125 9.289062 64.707031 10.34375 C 66.765625 11.875 67.027344 11.980469 65.972656 10.820312 C 65.234375 10.027344 63.648438 8.8125 62.4375 8.074219 C 59.796875 6.542969 59.640625 6.015625 61.484375 5.171875 C 63.386719 4.328125 62.910156 3.589844 59.320312 2.164062 C 55.257812 0.476562 49.558594 0.105469 46.128906 1.265625 C 44.175781 1.898438 43.4375 1.953125 42.804688 1.476562 C 42.117188 0.949219 42.117188 1.054688 42.855469 1.792969 C 43.699219 2.746094 43.859375 2.746094 45.863281 1.898438 C 48.34375 0.949219 53.410156 0.792969 55.890625 1.636719 C 58.214844 2.429688 58.003906 3.324219 55.574219 2.796875 C 52.777344 2.269531 48.292969 2.429688 46.867188 3.21875 C 46.179688 3.535156 45.125 4.328125 44.492188 4.910156 C 43.804688 5.488281 43.171875 5.910156 43.066406 5.753906 C 42.960938 5.648438 42.117188 4.273438 41.167969 2.746094 C 39.792969 0.527344 39.214844 0 38.054688 0 C 36.996094 0 36.417969 0.421875 35.730469 1.6875 Z M 38 6.703125 C 37.945312 9.871094 38.105469 13.40625 38.265625 14.621094 C 38.632812 16.785156 38.582031 16.890625 37.3125 16.890625 C 36.417969 16.890625 35.941406 16.519531 35.730469 15.726562 C 35.414062 14.566406 36.152344 5.171875 36.679688 3.535156 C 36.839844 3.0625 37.050781 2.269531 37.207031 1.847656 C 37.789062 -0.105469 38.054688 1.476562 38 6.703125 Z M 61.695312 3.695312 C 62.277344 4.011719 62.066406 4.328125 60.800781 4.960938 C 58.6875 6.070312 58.792969 6.070312 58.792969 4.222656 C 58.792969 2.851562 58.953125 2.691406 59.851562 2.957031 C 60.484375 3.167969 61.273438 3.484375 61.695312 3.695312 Z M 27.867188 4.960938 C 28.660156 5.382812 29.871094 6.386719 30.609375 7.179688 L 31.929688 8.601562 L 30.082031 7.230469 C 29.027344 6.492188 27.390625 5.488281 26.390625 5.066406 C 25.28125 4.589844 24.964844 4.273438 25.492188 4.222656 C 26.019531 4.222656 27.074219 4.539062 27.867188 4.960938 Z M 49.875 5.488281 C 47.078125 6.753906 46.074219 7.707031 44.648438 10.292969 C 43.910156 11.664062 43.804688 11.664062 44.121094 10.554688 C 44.964844 7.546875 48.714844 4.273438 51.457031 4.273438 C 52.039062 4.222656 51.351562 4.804688 49.875 5.488281 Z M 57.316406 6.332031 C 57.316406 7.496094 57.210938 7.496094 55.679688 6.859375 C 54.679688 6.4375 54.679688 6.4375 55.945312 5.910156 C 56.683594 5.59375 57.265625 5.332031 57.265625 5.332031 C 57.316406 5.277344 57.316406 5.753906 57.316406 6.332031 Z M 33.25 11.453125 C 33.25 12.613281 32.828125 12.191406 32.246094 10.398438 C 31.71875 8.867188 31.773438 8.8125 32.457031 9.710938 C 32.878906 10.292969 33.25 11.082031 33.25 11.453125 Z M 30.136719 13.035156 C 31.5625 13.773438 33.195312 14.9375 33.832031 15.621094 L 34.992188 16.890625 L 31.71875 16.890625 C 29.238281 16.890625 27.8125 16.570312 25.753906 15.515625 C 22.0625 13.667969 18.207031 13.933594 13.140625 16.464844 C 10.554688 17.734375 9.710938 17.996094 10.082031 17.363281 C 10.765625 16.042969 14.304688 13.351562 16.941406 12.140625 C 20.160156 10.609375 26.546875 11.03125 30.136719 13.035156 Z M 59.429688 12.351562 C 61.960938 13.511719 66.765625 17.3125 66.339844 17.734375 C 66.234375 17.839844 64.652344 17.207031 62.859375 16.308594 C 58.109375 13.933594 53.9375 13.667969 50.246094 15.515625 C 48.1875 16.570312 46.761719 16.890625 44.28125 16.890625 L 41.007812 16.890625 L 42.011719 15.78125 C 45.863281 11.503906 54.148438 9.871094 59.429688 12.351562 Z M 48.976562 19.421875 C 49.398438 20.054688 50.929688 21.796875 52.355469 23.328125 C 53.726562 24.804688 54.785156 26.125 54.625 26.285156 C 54.519531 26.441406 52.195312 27.074219 49.503906 27.65625 L 44.597656 28.816406 L 43.753906 31.191406 C 42.910156 33.355469 42.910156 33.726562 43.859375 37.417969 C 44.386719 39.582031 44.914062 41.378906 44.964844 41.429688 C 45.070312 41.484375 46.496094 42.378906 48.1875 43.4375 C 49.820312 44.492188 51.195312 45.546875 51.140625 45.757812 C 51.140625 46.023438 50.507812 47.5 49.714844 49.082031 C 47.816406 52.9375 46.550781 53.410156 42.539062 51.5625 C 40.902344 50.824219 39.582031 49.929688 39.582031 49.609375 C 39.582031 49.242188 40.640625 47.765625 41.957031 46.339844 C 43.277344 44.859375 44.332031 43.542969 44.332031 43.277344 C 44.332031 42.855469 32.828125 42.117188 32.140625 42.539062 C 31.246094 43.066406 31.667969 43.859375 34.042969 46.023438 C 37.050781 48.765625 37.15625 50.191406 34.410156 51.40625 C 33.304688 51.933594 31.5625 52.25 30.558594 52.144531 C 28.976562 51.984375 28.605469 51.617188 27.074219 48.765625 L 25.332031 45.496094 L 28.710938 43.382812 L 32.089844 41.273438 L 32.773438 37.472656 C 33.355469 34.253906 33.304688 33.355469 32.617188 31.507812 C 31.824219 29.292969 31.773438 29.292969 26.917969 27.8125 C 24.226562 27.023438 21.957031 26.335938 21.851562 26.230469 C 21.796875 26.179688 23.222656 24.277344 25.015625 22.007812 L 28.234375 17.890625 L 38.210938 18.050781 C 47.921875 18.207031 48.1875 18.261719 48.976562 19.421875 Z M 23.433594 21.480469 C 22.957031 22.324219 22.007812 23.695312 21.429688 24.648438 C 20.636719 25.808594 19.6875 26.496094 18.15625 26.863281 C 15.359375 27.601562 11.03125 32.089844 8.917969 36.574219 L 7.335938 39.847656 L 7.652344 37.207031 C 8.496094 30.347656 14.25 23.328125 21.109375 20.792969 C 24.121094 19.6875 24.542969 19.84375 23.433594 21.480469 Z M 54.679688 20.792969 C 58.054688 21.957031 63.175781 25.703125 64.917969 28.234375 C 66.816406 30.980469 68.609375 35.835938 68.609375 38.160156 C 68.609375 39.476562 68.347656 39.160156 66.710938 35.941406 C 64.652344 31.878906 60.167969 26.917969 58.476562 26.917969 C 56.839844 26.917969 55.574219 26.019531 53.992188 23.644531 C 51.195312 19.476562 51.195312 19.527344 54.679688 20.792969 Z M 26.546875 30.242188 C 28.234375 32.5625 30.082031 37.261719 30.082031 39.371094 C 30.082031 40.796875 29.765625 41.273438 28.5 41.957031 C 26.96875 42.75 26.863281 42.75 26.441406 41.589844 C 22.007812 30.347656 22.113281 30.664062 23.011719 29.34375 C 24.015625 27.761719 24.859375 28.023438 26.546875 30.242188 Z M 53.09375 28.871094 C 53.464844 29.398438 53.832031 30.1875 53.832031 30.664062 C 53.832031 31.667969 50.191406 41.695312 49.558594 42.433594 C 48.976562 43.066406 46.601562 41.429688 46.179688 40.109375 C 45.707031 38.6875 48.238281 32.246094 50.246094 29.871094 C 52.039062 27.707031 52.144531 27.65625 53.09375 28.871094 Z M 21.269531 32.246094 C 22.007812 34.675781 21.902344 35.042969 19.210938 43.910156 C 18.367188 46.761719 18.261719 54.625 19.054688 58.003906 C 19.316406 59.269531 19.421875 60.429688 19.316406 60.589844 C 18.789062 61.117188 15.78125 53.9375 15.253906 50.824219 C 14.566406 46.867188 15.304688 39.898438 16.835938 35.890625 C 18.050781 32.667969 20.003906 29.292969 20.371094 29.660156 C 20.476562 29.820312 20.898438 30.980469 21.269531 32.246094 Z M 57.898438 32.828125 C 60.429688 38 60.851562 39.953125 60.90625 46.179688 C 60.957031 50.457031 60.695312 52.671875 60.007812 54.625 C 59.003906 57.582031 56.15625 62.4375 56.789062 60.167969 C 56.945312 59.429688 57.265625 56.101562 57.371094 52.777344 C 57.632812 47.078125 57.527344 46.285156 55.945312 40.902344 C 54.414062 35.570312 54.308594 34.886719 54.890625 32.300781 C 55.207031 30.820312 55.679688 29.554688 55.890625 29.554688 C 56.15625 29.554688 57.054688 31.035156 57.898438 32.828125 Z M 53.042969 53.992188 C 53.042969 58.6875 52.882812 59.746094 51.667969 62.277344 C 50.929688 63.859375 49.292969 66.234375 48.082031 67.554688 L 45.863281 69.929688 L 46.917969 67.765625 C 48.554688 64.390625 50.246094 57.054688 50.191406 53.675781 C 50.140625 51.828125 50.457031 49.980469 50.984375 48.976562 C 52.355469 46.285156 53.042969 47.871094 53.042969 53.992188 Z M 42.0625 53.621094 C 45.390625 54.730469 45.601562 54.996094 44.648438 56.894531 C 43.648438 58.847656 41.746094 59.320312 36.574219 59.003906 C 33.726562 58.847656 32.933594 58.582031 32.089844 57.527344 C 30.664062 55.785156 31.085938 54.890625 33.777344 53.78125 C 36.734375 52.566406 38.84375 52.566406 42.0625 53.621094 Z M 33.039062 61.328125 C 33.039062 62.015625 33.25 63.386719 33.460938 64.390625 C 33.777344 66.128906 33.777344 66.183594 32.984375 65.234375 C 32.5625 64.652344 32.195312 63.753906 32.195312 63.28125 C 32.195312 62.753906 31.984375 62.171875 31.667969 62.015625 C 31.402344 61.855469 31.140625 61.117188 31.140625 60.378906 C 31.140625 59.269531 31.296875 59.164062 32.089844 59.585938 C 32.5625 59.851562 32.984375 60.640625 33.039062 61.328125 Z M 44.648438 61.273438 C 44.28125 63.4375 42.855469 66.816406 42.433594 66.394531 C 42.0625 66.023438 43.488281 59.902344 44.070312 59.535156 C 44.964844 58.847656 45.019531 59.003906 44.648438 61.273438 Z M 38.632812 66.554688 C 38.738281 72.410156 38.210938 75.628906 37.417969 73.625 C 36.945312 72.359375 36.839844 63.015625 37.261719 61.328125 C 37.945312 58.847656 38.527344 61.117188 38.632812 66.554688 Z M 38.632812 66.554688 "/>
<path style=" stroke:none;fill-rule:nonzero;fill:rgb(0%,0%,0%);fill-opacity:1;" d="M 31.140625 2.109375 C 32.195312 2.796875 33.25 2.796875 33.25 2.109375 C 33.25 1.792969 32.617188 1.582031 31.824219 1.582031 C 30.664062 1.582031 30.503906 1.6875 31.140625 2.109375 Z M 31.140625 2.109375 "/>
<path style=" stroke:none;fill-rule:nonzero;fill:rgb(0%,0%,0%);fill-opacity:1;" d="M 15.515625 6.332031 C 15.515625 6.859375 15.832031 7.179688 16.203125 7.019531 C 16.570312 6.859375 16.890625 6.542969 16.890625 6.332031 C 16.890625 6.121094 16.570312 5.804688 16.203125 5.648438 C 15.832031 5.488281 15.515625 5.804688 15.515625 6.332031 Z M 15.515625 6.332031 "/>
<path style=" stroke:none;fill-rule:nonzero;fill:rgb(0%,0%,0%);fill-opacity:1;" d="M 69.140625 14.515625 C 69.824219 15.253906 70.511719 15.832031 70.617188 15.832031 C 70.773438 15.832031 70.351562 15.253906 69.667969 14.515625 C 68.980469 13.773438 68.292969 13.195312 68.1875 13.195312 C 68.03125 13.195312 68.453125 13.773438 69.140625 14.515625 Z M 69.140625 14.515625 "/>
<path style=" stroke:none;fill-rule:nonzero;fill:rgb(0%,0%,0%);fill-opacity:1;" d="M 75.261719 23.960938 C 75.523438 24.699219 75.050781 24.804688 72.09375 24.804688 C 68.929688 24.804688 67.820312 25.28125 69.140625 26.125 C 69.457031 26.285156 69.667969 26.179688 69.667969 25.914062 C 69.667969 25.542969 70.933594 25.332031 72.832031 25.332031 C 75.261719 25.332031 76 25.175781 76 24.59375 C 76 24.171875 75.789062 23.644531 75.472656 23.484375 C 75.15625 23.328125 75.101562 23.539062 75.261719 23.960938 Z M 75.261719 23.960938 "/>
<path style=" stroke:none;fill-rule:nonzero;fill:rgb(0%,0%,0%);fill-opacity:1;" d="M 1.320312 25.121094 C 3.851562 25.542969 7.390625 25.597656 7.390625 25.226562 C 7.390625 24.964844 5.804688 24.859375 3.851562 24.859375 C 1.847656 24.910156 0.738281 25.015625 1.320312 25.121094 Z M 1.320312 25.121094 "/>
<path style=" stroke:none;fill-rule:nonzero;fill:rgb(0%,0%,0%);fill-opacity:1;" d="M 67.554688 47.339844 C 67.554688 48.082031 67.660156 48.132812 68.03125 47.554688 C 68.292969 47.128906 68.769531 47.023438 69.140625 47.234375 C 69.613281 47.5 69.71875 47.445312 69.457031 47.078125 C 68.875 46.128906 67.554688 46.339844 67.554688 47.339844 Z M 67.554688 47.339844 "/>
<path style=" stroke:none;fill-rule:nonzero;fill:rgb(0%,0%,0%);fill-opacity:1;" d="M 67.082031 48.925781 C 67.027344 49.242188 66.871094 49.980469 66.710938 50.507812 C 66.445312 51.40625 66.445312 51.40625 67.027344 50.507812 C 67.34375 49.980469 67.503906 49.292969 67.34375 48.925781 C 67.1875 48.449219 67.082031 48.449219 67.082031 48.925781 Z M 67.082031 48.925781 "/>
<path style=" stroke:none;fill-rule:nonzero;fill:rgb(0%,0%,0%);fill-opacity:1;" d="M 22.695312 67.554688 C 22.695312 68.453125 22.800781 68.558594 23.433594 67.976562 C 24.171875 67.292969 24.066406 66.5 23.167969 66.5 C 22.90625 66.5 22.695312 66.976562 22.695312 67.554688 Z M 22.695312 67.554688 "/>
<path style=" stroke:none;fill-rule:nonzero;fill:rgb(0%,0%,0%);fill-opacity:1;" d="M 41.429688 74.257812 L 39.953125 76.265625 L 41.484375 74.839844 C 42.75 73.625 43.226562 73.464844 43.753906 74.046875 C 44.332031 74.574219 44.332031 74.46875 43.859375 73.464844 C 43.542969 72.832031 43.171875 72.304688 43.066406 72.304688 C 42.960938 72.304688 42.222656 73.203125 41.429688 74.257812 Z M 41.429688 74.257812 "/>
<path style=" stroke:none;fill-rule:nonzero;fill:rgb(0%,0%,0%);fill-opacity:1;" d="M 32.722656 73.042969 C 32.722656 73.148438 33.089844 73.414062 33.566406 73.570312 C 33.988281 73.730469 34.199219 73.679688 34.042969 73.359375 C 33.726562 72.832031 32.722656 72.621094 32.722656 73.042969 Z M 32.722656 73.042969 "/>
</g>
</svg>
