<?xml version="1.0" standalone="no"?>
<!DOCTYPE svg PUBLIC "-//W3C//DTD SVG 20010904//EN"
 "http://www.w3.org/TR/2001/REC-SVG-20010904/DTD/svg10.dtd">
<svg version="1.0" xmlns="http://www.w3.org/2000/svg"
 width="76.000000pt" height="76.000000pt" viewBox="0 0 76.000000 76.000000"
 preserveAspectRatio="xMidYMid meet">

<g transform="translate(0.000000,76.000000) scale(0.100000,-0.100000)"
fill="#000000" stroke="none">
<path d="M0 640 c0 -66 2 -120 5 -120 2 0 13 17 24 39 20 39 114 131 135 131
6 0 2 7 -8 15 -25 19 -18 25 41 41 46 12 44 13 -74 13 l-123 1 0 -120z"/>
<path d="M290 746 c36 -13 50 -12 50 5 0 5 -19 9 -42 8 l-43 0 35 -13z"/>
<path d="M350 730 c-20 -28 -23 -29 -43 -15 -23 16 -102 21 -111 6 -3 -5 2
-12 11 -15 13 -5 6 -14 -34 -36 -52 -30 -123 -103 -123 -127 0 -8 12 -13 29
-13 l29 0 -23 -57 c-13 -32 -26 -82 -30 -111 -7 -52 -6 -53 13 -43 29 15 28
16 41 -36 14 -54 49 -119 80 -147 21 -19 21 -19 21 10 l1 29 20 -38 c11 -22
22 -37 25 -34 2 2 -2 17 -11 33 -16 32 -21 144 -5 144 11 0 16 -20 24 -93 6
-54 45 -149 53 -129 8 21 23 13 40 -23 9 -19 20 -35 23 -35 4 0 15 16 26 35
18 34 34 46 34 25 0 -5 4 -10 9 -10 12 0 51 124 51 164 0 40 8 66 21 66 5 0 9
-28 9 -62 0 -45 -6 -73 -20 -98 l-21 -35 31 35 c21 25 30 29 30 17 0 -27 17
-20 45 17 29 38 65 125 65 156 0 23 4 24 31 10 17 -10 19 -7 19 23 0 41 -26
132 -47 164 -15 23 -15 23 21 23 20 0 36 3 36 8 -1 28 -110 134 -152 147 -19
7 -19 7 -1 20 17 13 16 14 -12 25 -35 13 -81 6 -106 -16 -16 -14 -19 -13 -35
15 -23 39 -37 39 -64 1z m25 -138 c-12 -12 -23 22 -19 57 13 100 19 107 22 27
2 -43 0 -81 -3 -84z m-64 92 c9 -11 2 -9 -18 6 -18 13 -33 25 -33 27 0 8 38
-17 51 -33z m167 4 c-18 -18 -35 -32 -38 -30 -5 4 57 62 66 62 3 0 -9 -15 -28
-32z m-157 -69 l34 -24 -32 -3 c-17 -2 -46 4 -64 13 -35 19 -82 14 -134 -12
-29 -15 -29 -15 -15 2 50 61 145 71 211 24z m277 17 c15 -8 36 -24 46 -35 l20
-22 -45 20 c-53 24 -88 26 -115 6 -22 -16 -99 -21 -89 -5 13 20 81 49 118 50
21 0 50 -6 65 -14z m-88 -88 c19 -18 29 -26 23 -18 -36 40 7 34 73 -11 28 -19
48 -44 63 -78 29 -69 26 -83 -7 -30 -51 79 -76 90 -160 74 -55 -10 -76 -39
-66 -90 6 -36 15 -48 57 -77 15 -11 16 -18 7 -45 -14 -38 -30 -45 -70 -32 -35
13 -38 29 -10 54 11 10 20 21 20 25 0 4 -23 10 -52 13 -67 8 -83 -5 -44 -37
32 -25 29 -42 -10 -56 -33 -13 -50 -4 -65 32 -13 32 -8 39 39 67 16 9 27 71
18 104 -5 20 -16 27 -56 37 -27 7 -50 14 -50 17 0 3 14 23 31 44 l31 39 96 0
c94 0 97 -1 132 -32z m-270 6 c0 -17 -44 -64 -59 -64 -21 0 -63 -43 -85 -87
-20 -40 -29 -42 -20 -5 9 38 42 93 67 112 49 36 97 58 97 44z m60 -114 c16 0
6 -90 -12 -102 -17 -10 -23 -2 -47 61 -15 41 -18 58 -9 68 9 11 15 10 33 -7
12 -11 27 -20 35 -20z m234 22 c4 -10 -4 -44 -17 -75 -20 -49 -25 -55 -39 -45
-9 7 -19 30 -22 51 -6 33 -4 38 17 46 13 5 27 17 30 25 8 21 24 20 31 -2z
m-320 -24 c3 -13 -2 -50 -10 -83 -16 -60 -20 -177 -8 -197 4 -6 2 -8 -4 -4 -6
3 -18 26 -28 51 -21 55 -15 162 12 218 20 43 29 46 38 15z m375 -27 c28 -65
28 -160 1 -216 l-20 -40 6 61 c4 46 0 79 -15 130 -19 64 -19 114 -1 114 4 0
17 -22 29 -49z m-163 -187 c27 -7 33 -39 8 -48 -46 -18 -124 -1 -124 26 0 11
63 37 78 32 8 -2 25 -7 38 -10z m-92 -99 c5 -20 4 -27 -3 -20 -5 6 -13 24 -17
40 -4 20 -3 27 3 20 6 -5 14 -23 17 -40z m111 18 c-8 -35 -26 -55 -19 -22 9
39 13 49 20 49 3 0 3 -12 -1 -27z m-55 -52 c0 -33 -4 -63 -10 -66 -6 -4 -10
18 -10 59 0 37 4 66 10 66 6 0 10 -26 10 -59z"/>
<path d="M423 748 c2 -7 13 -11 23 -10 68 13 104 12 139 -2 36 -15 37 -17 20
-30 -18 -13 -17 -14 11 -29 36 -19 95 -80 123 -127 l21 -35 0 123 0 122 -171
0 c-132 0 -170 -3 -166 -12z"/>
<path d="M0 255 l0 -255 176 0 c136 0 175 3 171 13 -2 6 -12 12 -21 12 -10 0
-35 15 -56 32 -21 19 -40 28 -42 22 -7 -20 -106 99 -124 148 -22 60 -31 70
-46 55 -22 -22 -28 -13 -28 41 0 48 16 125 35 170 6 14 2 17 -29 17 l-36 0 0
-255z"/>
<path d="M695 493 c23 -55 35 -113 35 -166 l0 -59 -24 15 c-24 16 -24 16 -45
-43 -23 -62 -109 -170 -121 -151 -4 7 -23 -4 -49 -28 -23 -21 -49 -38 -58 -37
-9 0 -18 -5 -20 -11 -4 -10 35 -13 171 -13 l176 0 0 255 0 255 -36 0 c-31 0
-35 -3 -29 -17z"/>
</g>
</svg>
