<?xml version="1.0" standalone="no"?>
<!DOCTYPE svg PUBLIC "-//W3C//DTD SVG 20010904//EN"
 "http://www.w3.org/TR/2001/REC-SVG-20010904/DTD/svg10.dtd">
<svg version="1.0" xmlns="http://www.w3.org/2000/svg"
 width="76.000000pt" height="76.000000pt" viewBox="0 0 76.000000 76.000000"
 preserveAspectRatio="xMidYMid meet">

<g transform="translate(0.000000,76.000000) scale(0.100000,-0.100000)"
fill="#000000" stroke="none">
<path d="M250 750 c30 -4 61 -9 69 -11 7 -2 16 2 18 9 4 9 -14 12 -69 11 l-73
-2 55 -7z"/>
<path d="M347 729 c-16 -30 -19 -31 -36 -15 -11 10 -35 16 -64 16 -48 0 -68
-13 -42 -28 13 -7 8 -12 -25 -27 -44 -20 -130 -105 -130 -130 0 -10 10 -15 29
-15 l30 0 -24 -52 c-26 -59 -44 -168 -27 -168 6 0 14 5 17 10 12 20 21 9 34
-40 12 -49 77 -160 93 -160 4 0 8 10 8 22 0 17 6 13 30 -20 39 -54 45 -54 15
1 -18 31 -25 57 -25 100 0 31 4 57 9 57 13 0 21 -26 21 -66 0 -30 34 -151 46
-163 2 -2 10 1 17 7 11 9 17 6 28 -16 13 -26 14 -25 19 43 3 39 9 63 12 55 9
-19 4 -99 -6 -122 -6 -13 -3 -17 16 -15 21 1 60 27 41 27 -5 0 -14 -5 -21 -12
-15 -15 -15 -6 0 26 9 21 14 23 25 14 8 -6 17 -7 22 -2 14 16 44 126 43 158
-2 40 6 66 20 66 6 0 9 -25 6 -68 -2 -50 -9 -76 -27 -100 -13 -18 -20 -36 -17
-39 3 -4 -4 -18 -16 -32 l-23 -25 37 27 c20 15 44 27 52 27 17 0 46 28 79 75
20 29 20 30 0 12 -17 -15 -16 -9 9 39 15 32 31 75 34 96 6 37 17 48 29 28 3
-5 11 -10 17 -10 18 0 0 120 -26 173 l-23 47 34 0 c18 0 33 3 33 6 0 14 -46
72 -89 113 -34 32 -38 39 -16 26 26 -16 28 -16 16 -2 -7 9 -11 23 -8 32 4 8 1
17 -5 21 -7 4 -8 3 -4 -4 4 -7 1 -12 -9 -12 -11 0 -15 5 -12 14 8 21 -37 36
-109 36 -48 0 -64 -3 -61 -12 2 -7 13 -12 23 -10 10 1 37 5 59 7 l40 4 -38 -8
c-21 -4 -43 -13 -50 -20 -17 -17 -32 -13 -47 14 -18 34 -41 31 -63 -6z m32
-64 c-1 -41 -5 -75 -10 -75 -10 0 -12 93 -3 128 11 38 14 25 13 -53z m-67 -41
c15 -8 30 -18 33 -24 9 -15 -56 -11 -85 5 -34 20 -67 18 -119 -6 l-45 -20 20
22 c43 49 127 59 196 23z m281 12 c18 -7 41 -23 51 -35 l20 -22 -45 20 c-53
25 -80 26 -120 5 -17 -8 -44 -14 -62 -12 l-31 3 29 19 c53 35 110 43 158 22z
m-86 -93 c18 -20 33 -40 33 -44 0 -8 -37 -19 -67 -19 -31 0 -46 -33 -38 -82 7
-38 15 -50 58 -80 15 -11 16 -18 7 -45 -14 -38 -30 -45 -70 -32 -36 13 -37 25
-8 56 12 13 20 25 17 27 -2 2 -30 7 -61 11 -67 8 -75 -2 -31 -43 26 -24 26
-25 8 -38 -33 -24 -63 -17 -81 18 -16 30 -16 33 1 43 42 23 55 45 55 88 0 55
-6 62 -60 78 -25 7 -47 14 -49 15 -2 2 11 21 29 44 l32 40 96 0 96 0 33 -37z
m-267 11 c0 -17 -44 -64 -60 -64 -20 0 -90 -75 -90 -96 0 -7 -4 -15 -10 -19
-15 -9 17 85 37 107 19 23 102 78 115 78 4 0 8 -3 8 -6z m361 -33 c40 -28 72
-77 83 -126 l6 -30 -16 30 c-23 42 -73 92 -98 99 -12 3 -30 19 -40 37 l-18 31
22 -7 c13 -4 40 -19 61 -34z m-305 -128 c7 -35 0 -53 -20 -53 -18 0 -57 115
-43 129 15 15 54 -32 63 -76z m223 3 c-20 -55 -43 -72 -55 -41 -8 19 13 73 40
103 32 36 40 4 15 -62z m-305 42 c3 -13 -4 -54 -15 -92 -16 -52 -19 -83 -15
-130 l7 -61 -18 30 c-25 45 -26 156 -1 222 21 57 32 66 42 31z m375 -27 c27
-65 28 -160 1 -216 l-19 -40 6 65 c4 50 0 79 -15 126 -18 57 -20 114 -2 114 4
0 17 -22 29 -49z m-146 -200 c20 -20 -13 -41 -64 -41 -38 0 -51 4 -59 20 -9
17 -7 22 12 30 27 12 96 6 111 -9z m-109 -86 c5 -20 4 -27 -3 -20 -5 6 -13 24
-17 40 -4 20 -3 27 3 20 6 -5 14 -23 17 -40z m111 18 c-8 -35 -26 -55 -19 -22
9 39 13 49 20 49 3 0 3 -12 -1 -27z m117 -33 c6 0 5 -6 -2 -15 -10 -12 -15
-13 -21 -3 -6 9 -13 8 -30 -7 -17 -16 -15 -11 7 21 23 33 30 38 32 23 2 -11 8
-19 14 -19z"/>
<path d="M140 687 c-12 -21 -12 -21 6 -7 10 8 20 15 22 16 2 1 -1 4 -5 7 -5 3
-15 -4 -23 -16z"/>
<path d="M739 543 c16 -31 14 -33 -19 -33 -16 0 -30 -4 -30 -8 0 -4 16 -6 35
-4 38 5 43 18 19 48 -15 18 -15 18 -5 -3z"/>
<path d="M721 404 c0 -11 3 -14 6 -6 3 7 2 16 -1 19 -3 4 -6 -2 -5 -13z"/>
<path d="M733 305 c0 -22 2 -30 4 -17 2 12 2 30 0 40 -3 9 -5 -1 -4 -23z"/>
<path d="M64 289 c-4 -7 -3 -9 4 -5 5 3 13 0 15 -6 4 -9 6 -10 6 -1 1 17 -16
25 -25 12z"/>
<path d="M677 293 c-4 -3 -7 -13 -7 -22 0 -12 2 -13 8 -3 5 8 16 10 28 6 10
-4 17 -5 14 -3 -22 20 -38 28 -43 22z"/>
<path d="M647 215 c-9 -19 -15 -35 -12 -35 7 0 37 61 33 66 -3 2 -12 -12 -21
-31z"/>
<path d="M230 82 c0 -4 10 -13 23 -21 22 -14 22 -14 3 8 -20 22 -26 25 -26 13z"/>
<path d="M330 23 c5 -2 8 -9 4 -14 -3 -5 0 -9 6 -9 15 0 7 23 -8 26 -7 1 -8 0
-2 -3z"/>
</g>
</svg>
